<?xml version="1.0" encoding="utf-8"?>
<!DOCTYPE svg PUBLIC "-//W3C//DTD SVG 1.1//EN" "http://www.w3.org/Graphics/SVG/1.1/DTD/svg11.dtd">
<svg version="1.1" xmlns="http://www.w3.org/2000/svg" xmlns:xlink="http://www.w3.org/1999/xlink" x="0px" y="0px" width="100px" height="100px" viewBox="142.5 326.5 100 100" enable-background="new 142.5 326.5 100 100" xml:space="preserve">
	<path fill="#333333" d="M235.793,352.026c-4.471-7.853-10.536-14.069-18.196-18.652c-7.661-4.583-16.025-6.874-25.097-6.874
		c-9.071,0-17.438,2.291-25.097,6.874c-7.661,4.582-13.726,10.8-18.196,18.652s-6.706,16.428-6.706,25.726
		c0,11.168,3.179,21.211,9.538,30.131c6.358,8.921,14.572,15.094,24.641,18.519c1.172,0.224,2.04,0.066,2.604-0.466
		c0.564-0.534,1.84-5.102,1.84-5.822c0-0.119-0.01-1.2-0.029-3.242c-0.021-2.043-0.03-3.824-0.03-5.346l-1.347,0.239
		c-0.859,0.162-1.943,0.229-3.252,0.21c-1.308-0.018-2.666-0.158-4.072-0.42c-1.407-0.26-2.716-0.859-3.926-1.801
		c-1.21-0.94-2.07-2.173-2.578-3.693l-0.586-1.381c-0.391-0.921-1.005-1.943-1.845-3.063c-0.84-1.122-1.689-1.882-2.549-2.282
		l-0.41-0.301c-0.273-0.201-0.527-0.441-0.762-0.722s-0.41-0.56-0.527-0.841c-0.117-0.281-0.02-0.512,0.293-0.691
		c0.312-0.182,0.878-0.269,1.699-0.269l1.171,0.179c0.782,0.161,1.748,0.641,2.9,1.441s2.1,1.842,2.842,3.122
		c0.899,1.644,1.982,2.894,3.252,3.755c1.269,0.861,2.549,1.291,3.838,1.291c1.288,0,2.401-0.1,3.34-0.3
		c0.937-0.2,1.815-0.501,2.636-0.901c0.352-2.684,1.309-4.746,2.871-6.188c-2.227-0.239-4.228-0.601-6.006-1.08
		c-1.777-0.48-3.613-1.262-5.507-2.344c-1.896-1.08-3.468-2.423-4.717-4.023c-1.25-1.602-2.276-3.705-3.076-6.307
		c-0.8-2.604-1.201-5.607-1.201-9.01c0-4.846,1.543-8.969,4.629-12.373c-1.446-3.644-1.309-7.728,0.41-12.252
		c1.132-0.361,2.812-0.09,5.039,0.811c2.227,0.901,3.857,1.673,4.893,2.312c1.036,0.641,1.866,1.182,2.49,1.621
		c3.634-1.04,7.383-1.561,11.25-1.561c3.867,0,7.618,0.521,11.251,1.561l2.227-1.439c1.522-0.962,3.32-1.844,5.389-2.645
		c2.071-0.801,3.654-1.02,4.748-0.66c1.757,4.525,1.914,8.609,0.467,12.252c3.086,3.404,4.63,7.529,4.63,12.373
		c0,3.404-0.402,6.416-1.201,9.039c-0.801,2.624-1.835,4.725-3.104,6.307c-1.271,1.582-2.853,2.914-4.747,3.994
		c-1.895,1.082-3.732,1.861-5.509,2.344c-1.777,0.48-3.779,0.842-6.005,1.082c2.031,1.801,3.046,4.644,3.046,8.527v12.672
		c0,0.721,1.758,5.288,2.301,5.822c0.542,0.532,1.399,0.689,2.571,0.466c10.071-3.425,18.285-9.598,24.643-18.519
		c6.357-8.92,9.537-18.963,9.537-30.131C242.498,368.454,240.261,359.879,235.793,352.026z"/>
</svg>
